<svg xmlns="http://www.w3.org/2000/svg" xmlns:xlink="http://www.w3.org/1999/xlink" width="101.092mm" height="116.078mm" viewBox="3923.4 2785.8 398 457"><title></title><style type="text/css">
*[layerid="1"] {stroke:#000000;fill:#000000;}
*[layerid="2"] {stroke:#000000;fill:#000000;}
*[layerid="3"] {stroke:#000000;fill:#000000;}
*[layerid="4"] {stroke:#000000;fill:#000000;}
*[layerid="5"] {stroke:#000000;fill:#000000;}
*[layerid="6"] {stroke:#000000;fill:#000000;}
*[layerid="7"] {stroke:#000000;fill:#000000;}
*[layerid="8"] {stroke:#000000;fill:#000000;}
*[layerid="9"] {stroke:#000000;fill:#000000;}
*[layerid="10"] {stroke:#000000;fill:#000000;}
*[layerid="11"] {stroke:#000000;fill:#000000;}
*[layerid="12"] {stroke:#000000;fill:#000000;}
*[layerid="13"] {stroke:#000000;fill:#000000;}
*[layerid="14"] {stroke:#000000;fill:#000000;}
*[layerid="15"] {stroke:#000000;fill:#000000;}
*[layerid="19"] {stroke:#000000;fill:#000000;}
*[layerid="21"] {stroke:#000000;fill:#000000;}
*[layerid="22"] {stroke:#000000;fill:#000000;}
*[layerid="23"] {stroke:#000000;fill:#000000;}
*[layerid="24"] {stroke:#000000;fill:#000000;}
*[layerid="25"] {stroke:#000000;fill:#000000;}
*[layerid="26"] {stroke:#000000;fill:#000000;}
*[layerid="27"] {stroke:#000000;fill:#000000;}
*[layerid="28"] {stroke:#000000;fill:#000000;}
*[layerid="29"] {stroke:#000000;fill:#000000;}
*[layerid="30"] {stroke:#000000;fill:#000000;}
*[layerid="31"] {stroke:#000000;fill:#000000;}
*[layerid="32"] {stroke:#000000;fill:#000000;}
*[layerid="33"] {stroke:#000000;fill:#000000;}
*[layerid="34"] {stroke:#000000;fill:#000000;}
*[layerid="35"] {stroke:#000000;fill:#000000;}
*[layerid="36"] {stroke:#000000;fill:#000000;}
*[layerid="37"] {stroke:#000000;fill:#000000;}
*[layerid="38"] {stroke:#000000;fill:#000000;}
*[layerid="39"] {stroke:#000000;fill:#000000;}
*[layerid="40"] {stroke:#000000;fill:#000000;}
*[layerid="41"] {stroke:#000000;fill:#000000;}
*[layerid="42"] {stroke:#000000;fill:#000000;}
*[layerid="43"] {stroke:#000000;fill:#000000;}
*[layerid="44"] {stroke:#000000;fill:#000000;}
*[layerid="45"] {stroke:#000000;fill:#000000;}
*[layerid="46"] {stroke:#000000;fill:#000000;}
*[layerid="47"] {stroke:#000000;fill:#000000;}
*[layerid="48"] {stroke:#000000;fill:#000000;}
*[layerid="49"] {stroke:#000000;fill:#000000;}
*[layerid="50"] {stroke:#000000;fill:#000000;}
*[layerid="51"] {stroke:#000000;fill:#000000;}
*[layerid="52"] {stroke:#000000;fill:#000000;}
*[layerid="99"] {stroke:#000000;fill:#000000;}
*[layerid="100"] {stroke:#000000;fill:#000000;}
*[layerid="101"] {stroke:#000000;fill:#000000;}
*[layerid="Hole"] {stroke:#000000;fill:#000000;}
*[layerid="DRCError"] {stroke:#000000;fill:#000000;}
*[fill="none"] {fill: none;}
*[stroke="none"] {stroke: none;}
path, polyline, polygon, line {stroke-linecap:round;}
g[c_partid="part_pad"][layerid="1"] ellipse:not([c_etype="pad_outer"]) {fill:#000000;}
g[c_partid="part_pad"][layerid="1"] polygon:not([c_etype="pad_outer"]) {fill:#000000;}
g[c_partid="part_pad"][layerid="1"] polyline:not([c_etype="pad_outer"]) {stroke:#000000;}
g[c_partid="part_pad"][layerid="2"] ellipse:not([c_etype="pad_outer"]) {fill:#000000;}
g[c_partid="part_pad"][layerid="2"] polygon:not([c_etype="pad_outer"]) {fill:#000000;}
g[c_partid="part_pad"][layerid="2"] polyline:not([c_etype="pad_outer"]) {stroke:#000000;}
g[c_partid="part_pad"][layerid="11"] ellipse:not([c_etype="pad_outer"]) {fill:#000000;}
g[c_partid="part_pad"][layerid="11"] polygon:not([c_etype="pad_outer"]) {fill:#000000;}
g[c_partid="part_pad"][layerid="11"] polyline:not([c_etype="pad_outer"]) {stroke:#000000;}
g[c_partid="part_pad"][layerid="11"] circle {fill:#FFFFFF;}
g[c_partid="part_pad"][layerid="11"] > polyline:nth-of-type(2) {stroke:#FFFFFF;}
g[c_partid="part_pad"][layerid="11"][c_shape="ELLIPSE"]  polyline:nth-last-of-type(1) {stroke:#FFFFFF;}
g[c_partid="part_pad"][layerid="11"][c_shape="RECT"]  polyline:nth-last-of-type(1) {stroke:#FFFFFF;}
g[c_partid="part_pad"][layerid="11"][c_shape="POLYGON"]  polyline:nth-last-of-type(1) {stroke:#FFFFFF;}
g[c_partid="part_via"] > * + circle, #gCurParts g[c_partid="part_via"] > * + circle {fill:#FFFFFF;}
g[c_partid="part_pad"] > polygon[c_etype="pad_outer"], #gCurParts g[c_partid="part_pad"] > polygon[c_etype="pad_outer"] {stroke-linejoin: miter;stroke-miterlimit: 100;}
g[c_partid="part_hole"] > circle {fill: #FFFFFF;}path, polyline, polygon {stroke-linejoin:round;}
rect, circle, ellipse, polyline, line, polygon, path {shape-rendering:crispEdges;}
</style>
<rect x="3923.4" y="2785.8" width="398" height="457" fill="#FFFFFF" stroke="none"/><path d="M 4056.60765 3188.6363 L 4056.45732 3188.60697 4056.32903 3188.5233 4056.24159 3188.39754 4045.16792 3163.2572 4045.15558 3163.22562 4040.7329 3150.31844 4040.72139 3150.27804 4038.02945 3138.51927 4038.02153 3138.47167 4036.80977 3126.89942 4036.8076 3126.85942 4036.75444 3114.04485 4036.7668 3113.9445 4039.06511 3104.91696 4039.09084 3104.84528 4044.14173 3094.11574 4044.1748 3094.05836 4051.14875 3083.98854 4051.18855 3083.93977 4059.86695 3074.86839 4059.91328 3074.82695 4074.1227 3063.9802 4074.30726 3063.80578 4075.93413 3061.90711 4076.04213 3061.75456 4076.14968 3061.49242 4076.18136 3061.32737 4076.1752 3061.06658 4070.76211 3023.85061 4070.75975 3023.83093 4069.08619 3006.24485 4069.08467 3006.22198 4068.42708 2988.72908 4068.42682 2988.7096 4068.64388 2969.20209 4068.6445 2969.18375 4070.16563 2942.53419 4070.16861 2942.50325 4073.30831 2919.34204 4073.31542 2919.30371 4078.43791 2897.64404 4078.4482 2897.6081 4085.92833 2875.46174 4085.9386 2875.43463 4090.66222 2864.20671 4090.67195 2864.18535 4096.21627 2852.9077 4096.22614 2852.8889 4102.38534 2841.8781 4102.40166 2841.85143 4115.83917 2821.70343 4115.86051 2821.67437 4122.69448 2813.19508 4122.71516 2813.17139 4129.3599 2806.13804 4129.40312 2806.09853 4138.43925 2798.97976 4138.56263 2798.91373 4138.7012 2798.89423 4138.83801 2798.92366 4138.95631 2798.99841 4146.76515 2806.11917 4146.78734 2806.14105 4158.7554 2818.89697 4158.78265 2818.92928 4169.49193 2833.08027 4169.51464 2833.11366 4178.97353 2848.65133 4178.99172 2848.68469 4187.19252 2865.58286 4187.20654 2865.61532 4194.14051 2883.84775 4194.15086 2883.87868 4199.80868 2903.41805 4199.81592 2903.44707 4204.18915 2924.26491 4204.19386 2924.29187 4207.27266 2946.35764 4207.27542 2946.38345 4208.83461 2967.49347 4208.8357 2967.52297 4208.8338 2988.58196 4208.83282 2988.61004 4207.18337 3012.02064 4207.18157 3012.0397 4201.85681 3056.87031 4201.8493 3057.06063 4201.97953 3060.3647 4202.02718 3060.64112 4202.12827 3060.87695 4202.90729 3062.2194 4203.06536 3062.42879 4203.22732 3062.57038 4214.18949 3070.31149 4214.2368 3070.35067 4223.56054 3079.36587 4223.60254 3079.41348 4231.25025 3089.61387 4231.28493 3089.66896 4237.14896 3100.92109 4237.17401 3100.98035 4240.75063 3111.79459 4240.76912 3111.8829 4241.99241 3124.94906 4241.99394 3124.99936 4241.51277 3139.78143 4241.5084 3139.82878 4240.42878 3146.90106 4240.41838 3146.94917 4236.4935 3160.88017 4236.47752 3160.92603 4233.65989 3167.66345 4233.63983 3167.70461 4226.10006 3181.16443 4225.98791 3181.45504 4225.9573 3181.7071 4225.9573 3182.48302 4225.93748 3182.60737 4225.87999 3182.7194 4221.66582 3188.47237 4221.5774 3188.56022 4221.46624 3188.61658 4221.34313 3188.636 4202.65265 3188.636 4202.50581 3188.60808 4202.37948 3188.5282 4202.29129 3188.40753 4202.25355 3188.2629 4201.63817 3179.1345 4201.62764 3179.03825 4200.22502 3169.80815 4200.19292 3169.66009 4197.40734 3159.82952 4197.36417 3159.70393 4193.56065 3150.34296 4193.47021 3150.16438 4185.29428 3136.8773 4185.13538 3136.67774 4184.95264 3136.53689 4184.74151 3136.44385 4184.50941 3136.40321 4184.3246 3136.41136 4184.05941 3136.46852 4183.85228 3136.56979 4183.67528 3136.71778 4183.53884 3136.90384 4183.4416 3137.13968 4180.8266 3146.57925 4180.74967 3146.727 4180.61924 3146.83061 4180.45791 3146.8721 4157.82895 3147.82338 4157.57723 3147.86473 4157.36359 3147.95619 4157.17768 3148.09401 4157.01661 3148.27173 4156.90452 3148.47955 4156.85105 3148.66577 4153.249 3167.86344 4153.23953 3167.90279 4147.21118 3188.34942 4147.12961 3188.49847 4146.99354 3188.60021 4146.82751 3188.6363 4130.43475 3188.6363 4130.28222 3188.60608 4130.15274 3188.51997 4130.06587 3188.391 4128.36799 3184.34249 4128.35457 3184.30546 4125.17664 3173.97986 4125.16771 3173.9455 4119.67499 3148.14903 4119.59218 3147.90775 4119.46685 3147.71319 4119.2913 3147.54622 4119.08875 3147.41932 4118.86531 3147.34577 4118.66237 3147.3257 4096.28649 3147.3257 4096.15408 3147.30315 4096.0366 3147.23804 4095.9473 3147.13771 4095.89624 3147.01347 4094.37053 3140.23006 4094.31288 3140.04935 4094.23429 3139.89351 4093.29589 3138.35969 4093.14253 3138.16667 4092.96608 3138.03139 4092.75945 3137.9317 4092.54375 3137.87779 4092.29722 3137.87789 4091.46695 3137.9803 4091.23201 3138.03807 4091.00809 3138.15372 4090.8238 3138.31369 4089.66424 3139.59113 4089.51488 3139.79945 4086.57684 3145.09863 4086.5167 3145.22346 4083.40264 3152.76382 4083.36783 3152.85991 4080.82975 3160.96405 4080.79705 3161.09287 4078.91044 3170.71584 4078.89345 3170.83221 4077.99912 3180.08492 4077.99397 3180.17346 4077.83357 3188.24425 4077.80087 3188.39486 4077.71366 3188.52194 4077.58488 3188.60661 4077.43364 3188.6363 4056.60765 3188.6363 Z M 4138.504 3185.08007 L 4139.1078 3185.04355 4139.7028 3184.93451 4140.28031 3184.75455 4140.83192 3184.50629 4141.34959 3184.19335 4141.82576 3183.82029 4142.25349 3183.39256 4142.62655 3182.91639 4142.93949 3182.39872 4143.18775 3181.84711 4143.36771 3181.2696 4143.47675 3180.6746 4143.51327 3180.0708 4143.47675 3179.467 4143.36771 3178.872 4143.18775 3178.29449 4142.93949 3177.74288 4142.62655 3177.22521 4142.25349 3176.74904 4141.82576 3176.32131 4141.34959 3175.94825 4140.83192 3175.63531 4140.28031 3175.38705 4139.7028 3175.20709 4139.1078 3175.09805 4138.504 3175.06153 4137.9002 3175.09805 4137.3052 3175.20709 4136.72769 3175.38705 4136.17608 3175.63531 4135.65841 3175.94825 4135.18224 3176.32131 4134.75451 3176.74904 4134.38145 3177.22521 4134.06851 3177.74288 4133.82025 3178.29449 4133.64029 3178.872 4133.53125 3179.467 4133.49473 3180.0708 4133.53125 3180.6746 4133.64029 3181.2696 4133.82025 3181.84711 4134.06851 3182.39872 4134.38145 3182.91639 4134.75451 3183.39256 4135.18224 3183.82029 4135.65841 3184.19335 4136.17608 3184.50629 4136.72769 3184.75455 4137.3052 3184.93451 4137.9002 3185.04355 4138.504 3185.08007 Z M 4063.7008 3184.29267 L 4064.3046 3184.25615 4064.8996 3184.14711 4065.47711 3183.96715 4066.02872 3183.71889 4066.54639 3183.40595 4067.02256 3183.03289 4067.45029 3182.60516 4067.82335 3182.12899 4068.13629 3181.61132 4068.38455 3181.05971 4068.56451 3180.4822 4068.67355 3179.8872 4068.71007 3179.2834 4068.67355 3178.6796 4068.56451 3178.0846 4068.38455 3177.50709 4068.13629 3176.95548 4067.82335 3176.43781 4067.45029 3175.96164 4067.02256 3175.53391 4066.54639 3175.16085 4066.02872 3174.84791 4065.47711 3174.59965 4064.8996 3174.41969 4064.3046 3174.31065 4063.7008 3174.27413 4063.097 3174.31065 4062.502 3174.41969 4061.92449 3174.59965 4061.37288 3174.84791 4060.85521 3175.16085 4060.37904 3175.53391 4059.95131 3175.96164 4059.57825 3176.43781 4059.26531 3176.95548 4059.01705 3177.50709 4058.83709 3178.0846 4058.72805 3178.6796 4058.69153 3179.2834 4058.72805 3179.8872 4058.83709 3180.4822 4059.01705 3181.05971 4059.26531 3181.61132 4059.57825 3182.12899 4059.95131 3182.60516 4060.37904 3183.03289 4060.85521 3183.40595 4061.37288 3183.71889 4061.92449 3183.96715 4062.502 3184.14711 4063.097 3184.25615 4063.7008 3184.29267 Z M 4215.2757 3179.56827 L 4215.8795 3179.53175 4216.4745 3179.42271 4217.05201 3179.24275 4217.60362 3178.99449 4218.12129 3178.68155 4218.59746 3178.30849 4219.02519 3177.88076 4219.39825 3177.40459 4219.71119 3176.88692 4219.95945 3176.33531 4220.13941 3175.7578 4220.24845 3175.1628 4220.28497 3174.559 4220.24845 3173.9552 4220.13941 3173.3602 4219.95945 3172.78269 4219.71119 3172.23108 4219.39825 3171.71341 4219.02519 3171.23724 4218.59746 3170.80951 4218.12129 3170.43645 4217.60362 3170.12351 4217.05201 3169.87525 4216.4745 3169.69529 4215.8795 3169.58625 4215.2757 3169.54973 4214.6719 3169.58625 4214.0769 3169.69529 4213.49939 3169.87525 4212.94778 3170.12351 4212.43011 3170.43645 4211.95394 3170.80951 4211.52621 3171.23724 4211.15315 3171.71341 4210.84021 3172.23108 4210.59195 3172.78269 4210.41199 3173.3602 4210.30295 3173.9552 4210.26643 3174.559 4210.30295 3175.1628 4210.41199 3175.7578 4210.59195 3176.33531 4210.84021 3176.88692 4211.15315 3177.40459 4211.52621 3177.88076 4211.95394 3178.30849 4212.43011 3178.68155 4212.94778 3178.99449 4213.49939 3179.24275 4214.0769 3179.42271 4214.6719 3179.53175 4215.2757 3179.56827 Z M 4138.504 2815.00107 L 4139.1078 2814.96455 4139.7028 2814.85551 4140.28031 2814.67555 4140.83192 2814.42729 4141.34959 2814.11435 4141.82576 2813.74129 4142.25349 2813.31356 4142.62655 2812.83739 4142.93949 2812.31972 4143.18775 2811.76811 4143.36771 2811.1906 4143.47675 2810.5956 4143.51327 2809.9918 4143.47675 2809.388 4143.36771 2808.793 4143.18775 2808.21549 4142.93949 2807.66388 4142.62655 2807.14621 4142.25349 2806.67004 4141.82576 2806.24231 4141.34959 2805.86925 4140.83192 2805.55631 4140.28031 2805.30805 4139.7028 2805.12809 4139.1078 2805.01905 4138.504 2804.98253 4137.9002 2805.01905 4137.3052 2805.12809 4136.72769 2805.30805 4136.17608 2805.55631 4135.65841 2805.86925 4135.18224 2806.24231 4134.75451 2806.67004 4134.38145 2807.14621 4134.06851 2807.66388 4133.82025 2808.21549 4133.64029 2808.793 4133.53125 2809.388 4133.49473 2809.9918 4133.53125 2810.5956 4133.64029 2811.1906 4133.82025 2811.76811 4134.06851 2812.31972 4134.38145 2812.83739 4134.75451 2813.31356 4135.18224 2813.74129 4135.65841 2814.11435 4136.17608 2814.42729 4136.72769 2814.67555 4137.3052 2814.85551 4137.9002 2814.96455 4138.504 2815.00107 Z M 4112.60289 2889.64355 L 4113.10241 2889.60938 4113.57922 2889.5103 4114.03809 2889.34722 4114.47049 2889.12317 4114.86834 2888.84233 4115.22426 2888.50993 4115.53159 2888.13216 4115.78463 2887.71607 4115.97865 2887.26939 4116.11003 2886.80045 4116.17635 2886.318 4116.17635 2885.831 4116.11003 2885.34855 4115.97865 2884.87961 4115.78463 2884.43293 4115.53159 2884.01684 4115.22426 2883.63907 4114.86834 2883.30667 4114.47049 2883.02583 4114.03809 2882.80178 4113.57922 2882.6387 4113.10241 2882.53962 4112.60289 2882.50545 4109.08691 2882.50545 4108.58739 2882.53962 4108.11058 2882.6387 4107.65171 2882.80178 4107.21931 2883.02583 4106.82146 2883.30667 4106.46554 2883.63907 4106.15821 2884.01684 4105.90517 2884.43293 4105.71115 2884.87961 4105.57977 2885.34855 4105.51345 2885.831 4105.51345 2886.318 4105.57977 2886.80045 4105.71115 2887.26939 4105.90517 2887.71607 4106.15821 2888.13216 4106.46554 2888.50993 4106.82146 2888.84233 4107.21931 2889.12317 4107.65171 2889.34722 4108.11058 2889.5103 4108.58739 2889.60938 4109.08691 2889.64355 4112.60289 2889.64355 Z M 4112.60289 2867.39915 L 4113.10241 2867.36498 4113.57922 2867.2659 4114.03809 2867.10282 4114.47049 2866.87877 4114.86834 2866.59793 4115.22426 2866.26553 4115.53159 2865.88776 4115.78463 2865.47167 4115.97865 2865.02499 4116.11003 2864.55605 4116.17635 2864.0736 4116.17635 2863.5866 4116.11003 2863.10415 4115.97865 2862.63521 4115.78463 2862.18853 4115.53159 2861.77244 4115.22426 2861.39467 4114.86834 2861.06227 4114.47049 2860.78143 4114.03809 2860.55738 4113.57922 2860.3943 4113.10241 2860.29522 4112.60289 2860.26105 4109.08691 2860.26105 4108.58739 2860.29522 4108.11058 2860.3943 4107.65171 2860.55738 4107.21931 2860.78143 4106.82146 2861.06227 4106.46554 2861.39467 4106.15821 2861.77244 4105.90517 2862.18853 4105.71115 2862.63521 4105.57977 2863.10415 4105.51345 2863.5866 4105.51345 2864.0736 4105.57977 2864.55605 4105.71115 2865.02499 4105.90517 2865.47167 4106.15821 2865.88776 4106.46554 2866.26553 4106.82146 2866.59793 4107.21931 2866.87877 4107.65171 2867.10282 4108.11058 2867.2659 4108.58739 2867.36498 4109.08691 2867.39915 4112.60289 2867.39915 Z M 4102.3809 2869.36667 L 4102.74403 2869.3349 4103.09612 2869.24056 4103.42649 2869.08651 4103.72508 2868.87743 4103.98283 2868.61968 4104.19191 2868.32109 4104.34596 2867.99072 4104.4403 2867.63863 4104.47207 2867.2755 4104.4403 2866.91237 4104.34596 2866.56028 4104.19191 2866.22991 4103.98283 2865.93132 4103.72508 2865.67357 4103.42649 2865.46449 4103.09612 2865.31044 4102.74403 2865.2161 4102.3809 2865.18433 4102.01777 2865.2161 4101.66568 2865.31044 4101.33531 2865.46449 4101.03672 2865.67357 4100.77897 2865.93132 4100.56989 2866.22991 4100.41584 2866.56028 4100.3215 2866.91237 4100.28973 2867.2755 4100.3215 2867.63863 4100.41584 2867.99072 4100.56989 2868.32109 4100.77897 2868.61968 4101.03672 2868.87743 4101.33531 2869.08651 4101.66568 2869.24056 4102.01777 2869.3349 4102.3809 2869.36667 Z M 4102.01777 2884.6889 L 4102.3809 2884.72067 4102.74403 2884.6889 4103.09612 2884.59456 4103.42649 2884.44051 4103.72508 2884.23143 4103.98283 2883.97368 4104.19191 2883.67509 4104.34596 2883.34472 4104.4403 2882.99263 4104.47207 2882.6295 4104.4403 2882.26637 4104.34596 2881.91428 4104.19191 2881.58391 4103.98283 2881.28532 4103.72508 2881.02757 4103.42649 2880.81849 4103.09612 2880.66444 4102.74403 2880.5701 4102.3809 2880.53833 4102.01777 2880.5701 4101.66568 2880.66444 4101.33531 2880.81849 4101.03672 2881.02757 4100.77897 2881.28532 4100.56989 2881.58391 4100.41584 2881.91428 4100.3215 2882.26637 4100.28973 2882.6295 4100.3215 2882.99263 4100.41584 2883.34472 4100.56989 2883.67509 4100.77897 2883.97368 4101.03672 2884.23143 4101.33531 2884.44051 4101.66568 2884.59456 4102.01777 2884.6889 Z " stroke-width="0" layerid="2" attachedcopperid="gge1237" c_shapetype="line" id="gge1237_0" class=""></path><g c_partid="part_pad" c_etype="pinpart" c_origin="4108.4827,2863.437" layerid="11" number="6" net="USB1_6" plated ="Y"  id="gge854" locked="0" c_rotation="90" c_width="5.1181" c_height="8.6614" title="USB1_6" c_shape="OVAL" pasteexpansion="0" solderexpansion="0.4"><polyline  c_etype="pad_shell" points="4106.7111 2863.437 4110.2544 2863.437" layerid="11" stroke-width="5.1181" /><polyline c_etype="pad_hole" points="4110.0577 2863.4366 4106.9077 2863.4366" layerid="11" stroke-width="2.756"></polyline></g><g c_partid="part_pad" c_etype="pinpart" c_origin="4108.4827,2885.681" layerid="11" number="7" net="USB1_7" plated ="Y"  id="gge859" locked="0" c_rotation="90" c_width="5.1181" c_height="8.6614" title="USB1_7" c_shape="OVAL" pasteexpansion="0" solderexpansion="0.4"><polyline  c_etype="pad_shell" points="4106.7111 2885.681 4110.2544 2885.681" layerid="11" stroke-width="5.1181" /><polyline c_etype="pad_hole" points="4110.0577 2885.681 4106.9077 2885.681" layerid="11" stroke-width="2.756"></polyline></g><g c_partid="part_via" c_etype="pinpart" c_shapetype="group" net="GND" c_origin="4138.1102,2874.5591" layerid="11" id="gge1268" locked="0" solderexpansion=""><circle cx="4138.1102" cy="2874.5591" r="1.2" stroke-width="0" c_etype="pad_shell"/><circle cx="4138.1102" cy="2874.5591" r="0.6"  stroke-width="0" c_etype="pad_hole"/></g><g c_partid="part_via" c_etype="pinpart" c_shapetype="group" net="GND" c_origin="4138.1102,2913.9291" layerid="11" id="gge1278" locked="0" solderexpansion=""><circle cx="4138.1102" cy="2913.9291" r="1.2" stroke-width="0" c_etype="pad_shell"/><circle cx="4138.1102" cy="2913.9291" r="0.6"  stroke-width="0" c_etype="pad_hole"/></g><g c_partid="part_via" c_etype="pinpart" c_shapetype="group" net="GND" c_origin="4177.4803,2913.9291" layerid="11" id="gge1283" locked="0" solderexpansion=""><circle cx="4177.4803" cy="2913.9291" r="1.2" stroke-width="0" c_etype="pad_shell"/><circle cx="4177.4803" cy="2913.9291" r="0.6"  stroke-width="0" c_etype="pad_hole"/></g><g c_partid="part_via" c_etype="pinpart" c_shapetype="group" net="GND" c_origin="4098.7402,2913.9291" layerid="11" id="gge1288" locked="0" solderexpansion=""><circle cx="4098.7402" cy="2913.9291" r="1.2" stroke-width="0" c_etype="pad_shell"/><circle cx="4098.7402" cy="2913.9291" r="0.6"  stroke-width="0" c_etype="pad_hole"/></g><g c_partid="part_via" c_etype="pinpart" c_shapetype="group" net="GND" c_origin="4098.7402,2953.2992" layerid="11" id="gge1293" locked="0" solderexpansion=""><circle cx="4098.7402" cy="2953.2992" r="1.2" stroke-width="0" c_etype="pad_shell"/><circle cx="4098.7402" cy="2953.2992" r="0.6"  stroke-width="0" c_etype="pad_hole"/></g><g c_partid="part_via" c_etype="pinpart" c_shapetype="group" net="GND" c_origin="4138.1102,2953.2992" layerid="11" id="gge1298" locked="0" solderexpansion=""><circle cx="4138.1102" cy="2953.2992" r="1.2" stroke-width="0" c_etype="pad_shell"/><circle cx="4138.1102" cy="2953.2992" r="0.6"  stroke-width="0" c_etype="pad_hole"/></g><g c_partid="part_via" c_etype="pinpart" c_shapetype="group" net="GND" c_origin="4177.4803,2953.2992" layerid="11" id="gge1303" locked="0" solderexpansion=""><circle cx="4177.4803" cy="2953.2992" r="1.2" stroke-width="0" c_etype="pad_shell"/><circle cx="4177.4803" cy="2953.2992" r="0.6"  stroke-width="0" c_etype="pad_hole"/></g><g c_partid="part_via" c_etype="pinpart" c_shapetype="group" net="GND" c_origin="4177.4803,2992.6693" layerid="11" id="gge1308" locked="0" solderexpansion=""><circle cx="4177.4803" cy="2992.6693" r="1.2" stroke-width="0" c_etype="pad_shell"/><circle cx="4177.4803" cy="2992.6693" r="0.6"  stroke-width="0" c_etype="pad_hole"/></g><g c_partid="part_via" c_etype="pinpart" c_shapetype="group" net="GND" c_origin="4138.1102,2992.6693" layerid="11" id="gge1313" locked="0" solderexpansion=""><circle cx="4138.1102" cy="2992.6693" r="1.2" stroke-width="0" c_etype="pad_shell"/><circle cx="4138.1102" cy="2992.6693" r="0.6"  stroke-width="0" c_etype="pad_hole"/></g><g c_partid="part_via" c_etype="pinpart" c_shapetype="group" net="GND" c_origin="4098.7402,2992.6693" layerid="11" id="gge1318" locked="0" solderexpansion=""><circle cx="4098.7402" cy="2992.6693" r="1.2" stroke-width="0" c_etype="pad_shell"/><circle cx="4098.7402" cy="2992.6693" r="0.6"  stroke-width="0" c_etype="pad_hole"/></g><g c_partid="part_via" c_etype="pinpart" c_shapetype="group" net="GND" c_origin="4098.7402,3032.0394" layerid="11" id="gge1323" locked="0" solderexpansion=""><circle cx="4098.7402" cy="3032.0394" r="1.2" stroke-width="0" c_etype="pad_shell"/><circle cx="4098.7402" cy="3032.0394" r="0.6"  stroke-width="0" c_etype="pad_hole"/></g><g c_partid="part_via" c_etype="pinpart" c_shapetype="group" net="GND" c_origin="4138.1102,3032.0394" layerid="11" id="gge1328" locked="0" solderexpansion=""><circle cx="4138.1102" cy="3032.0394" r="1.2" stroke-width="0" c_etype="pad_shell"/><circle cx="4138.1102" cy="3032.0394" r="0.6"  stroke-width="0" c_etype="pad_hole"/></g><g c_partid="part_via" c_etype="pinpart" c_shapetype="group" net="GND" c_origin="4177.4803,3032.0394" layerid="11" id="gge1333" locked="0" solderexpansion=""><circle cx="4177.4803" cy="3032.0394" r="1.2" stroke-width="0" c_etype="pad_shell"/><circle cx="4177.4803" cy="3032.0394" r="0.6"  stroke-width="0" c_etype="pad_hole"/></g><g c_partid="part_via" c_etype="pinpart" c_shapetype="group" net="GND" c_origin="4177.4803,3071.4094" layerid="11" id="gge1338" locked="0" solderexpansion=""><circle cx="4177.4803" cy="3071.4094" r="1.2" stroke-width="0" c_etype="pad_shell"/><circle cx="4177.4803" cy="3071.4094" r="0.6"  stroke-width="0" c_etype="pad_hole"/></g><g c_partid="part_via" c_etype="pinpart" c_shapetype="group" net="GND" c_origin="4138.1102,3071.4094" layerid="11" id="gge1343" locked="0" solderexpansion=""><circle cx="4138.1102" cy="3071.4094" r="1.2" stroke-width="0" c_etype="pad_shell"/><circle cx="4138.1102" cy="3071.4094" r="0.6"  stroke-width="0" c_etype="pad_hole"/></g><g c_partid="part_via" c_etype="pinpart" c_shapetype="group" net="GND" c_origin="4098.7402,3071.4094" layerid="11" id="gge1348" locked="0" solderexpansion=""><circle cx="4098.7402" cy="3071.4094" r="1.2" stroke-width="0" c_etype="pad_shell"/><circle cx="4098.7402" cy="3071.4094" r="0.6"  stroke-width="0" c_etype="pad_hole"/></g><g c_partid="part_via" c_etype="pinpart" c_shapetype="group" net="GND" c_origin="4059.3701,3110.7795" layerid="11" id="gge1353" locked="0" solderexpansion=""><circle cx="4059.3701" cy="3110.7795" r="1.2" stroke-width="0" c_etype="pad_shell"/><circle cx="4059.3701" cy="3110.7795" r="0.6"  stroke-width="0" c_etype="pad_hole"/></g><g c_partid="part_via" c_etype="pinpart" c_shapetype="group" net="GND" c_origin="4098.7402,3110.7795" layerid="11" id="gge1358" locked="0" solderexpansion=""><circle cx="4098.7402" cy="3110.7795" r="1.2" stroke-width="0" c_etype="pad_shell"/><circle cx="4098.7402" cy="3110.7795" r="0.6"  stroke-width="0" c_etype="pad_hole"/></g><g c_partid="part_via" c_etype="pinpart" c_shapetype="group" net="GND" c_origin="4138.1102,3110.7795" layerid="11" id="gge1363" locked="0" solderexpansion=""><circle cx="4138.1102" cy="3110.7795" r="1.2" stroke-width="0" c_etype="pad_shell"/><circle cx="4138.1102" cy="3110.7795" r="0.6"  stroke-width="0" c_etype="pad_hole"/></g><g c_partid="part_via" c_etype="pinpart" c_shapetype="group" net="GND" c_origin="4177.4803,3110.7795" layerid="11" id="gge1368" locked="0" solderexpansion=""><circle cx="4177.4803" cy="3110.7795" r="1.2" stroke-width="0" c_etype="pad_shell"/><circle cx="4177.4803" cy="3110.7795" r="0.6"  stroke-width="0" c_etype="pad_hole"/></g><g c_partid="part_via" c_etype="pinpart" c_shapetype="group" net="GND" c_origin="4216.8504,3110.7795" layerid="11" id="gge1373" locked="0" solderexpansion=""><circle cx="4216.8504" cy="3110.7795" r="1.2" stroke-width="0" c_etype="pad_shell"/><circle cx="4216.8504" cy="3110.7795" r="0.6"  stroke-width="0" c_etype="pad_hole"/></g><g c_partid="part_via" c_etype="pinpart" c_shapetype="group" net="GND" c_origin="4216.8504,3150.1496" layerid="11" id="gge1378" locked="0" solderexpansion=""><circle cx="4216.8504" cy="3150.1496" r="1.2" stroke-width="0" c_etype="pad_shell"/><circle cx="4216.8504" cy="3150.1496" r="0.6"  stroke-width="0" c_etype="pad_hole"/></g><g c_partid="part_via" c_etype="pinpart" c_shapetype="group" net="GND" c_origin="4138.1102,3150.1496" layerid="11" id="gge1383" locked="0" solderexpansion=""><circle cx="4138.1102" cy="3150.1496" r="1.2" stroke-width="0" c_etype="pad_shell"/><circle cx="4138.1102" cy="3150.1496" r="0.6"  stroke-width="0" c_etype="pad_hole"/></g><g c_partid="part_via" c_etype="pinpart" c_shapetype="group" net="GND" c_origin="4059.3701,3150.1496" layerid="11" id="gge1388" locked="0" solderexpansion=""><circle cx="4059.3701" cy="3150.1496" r="1.2" stroke-width="0" c_etype="pad_shell"/><circle cx="4059.3701" cy="3150.1496" r="0.6"  stroke-width="0" c_etype="pad_hole"/></g><g c_partid="part_via" c_etype="pinpart" c_shapetype="group" net="GND" c_origin="4116.063,2835.1887" layerid="11" id="gge1541" locked="0" solderexpansion=""><circle cx="4116.063" cy="2835.1887" r="1.2" stroke-width="0" c_etype="pad_shell"/><circle cx="4116.063" cy="2835.1887" r="0.6"  stroke-width="0" c_etype="pad_hole"/></g><g c_partid="part_via" c_etype="pinpart" c_shapetype="group" net="GND" c_origin="4105.8268,2840.7005" layerid="11" id="gge1546" locked="0" solderexpansion=""><circle cx="4105.8268" cy="2840.7005" r="1.2" stroke-width="0" c_etype="pad_shell"/><circle cx="4105.8268" cy="2840.7005" r="0.6"  stroke-width="0" c_etype="pad_hole"/></g><g c_partid="part_via" c_etype="pinpart" c_shapetype="group" net="GND" c_origin="4168.819,2848.5745" layerid="11" id="gge1551" locked="0" solderexpansion=""><circle cx="4168.819" cy="2848.5745" r="1.2" stroke-width="0" c_etype="pad_shell"/><circle cx="4168.819" cy="2848.5745" r="0.6"  stroke-width="0" c_etype="pad_hole"/></g><g c_partid="part_hole" c_etype="pinpart" c_shapetype="group" c_origin="4215.2757,3174.559" layerid="11" id="gge1593" locked="0" ><circle cx="4215.2757" cy="3174.559" r="4"  stroke-width="1" fill-opacity="0" /></g><g c_partid="part_hole" c_etype="pinpart" c_shapetype="group" c_origin="4138.504,3180.0708" layerid="11" id="gge1598" locked="0" ><circle cx="4138.504" cy="3180.0708" r="4"  stroke-width="1" fill-opacity="0" /></g><g c_partid="part_hole" c_etype="pinpart" c_shapetype="group" c_origin="4063.7008,3179.2834" layerid="11" id="gge1603" locked="0" ><circle cx="4063.7008" cy="3179.2834" r="4"  stroke-width="1" fill-opacity="0" /></g><g c_partid="part_hole" c_etype="pinpart" c_shapetype="group" c_origin="4138.504,2809.9918" layerid="11" id="gge1613" locked="0" ><circle cx="4138.504" cy="2809.9918" r="4"  stroke-width="1" fill-opacity="0" /></g><g c_partid="part_hole" c_etype="pinpart" c_shapetype="group" c_origin="4100.0187,2866.882" layerid="11" id="gge819" locked="0" ><circle cx="4100.0187" cy="2866.882" r="1.0827"  stroke-width="1" fill-opacity="0" /></g><g c_partid="part_hole" c_etype="pinpart" c_shapetype="group" c_origin="4100.0187,2882.236" layerid="11" id="gge823" locked="0" ><circle cx="4100.0187" cy="2882.236" r="1.0827"  stroke-width="1" fill-opacity="0" /></g><polyline points="4226.9673 3181.6829 4234.5605 3168.1277 4237.4424 3161.2366 4241.4141 3147.1394 4242.5195 3139.8982 4243.0063 3124.9434 4241.7598 3111.6294 4238.0972 3100.5552 4232.1274 3089.1001 4224.3433 3078.7178 4214.8608 3069.5491 4203.793 3061.7334 4202.9897 3060.3491 4202.8579 3057.0051 4208.1885 3012.1253 4209.8438 2988.6316 4209.8457 2967.471 4208.2793 2946.2634 4205.1875 2924.1045 4200.7935 2903.1878 4195.105 2883.5425 4188.1284 2865.198 4179.8711 2848.1834 4170.3403 2832.5276 4159.543 2818.2603 4147.4863 2805.4099 4138.7534 2797.4465 4128.6968 2805.3692 4121.9429 2812.5181 4115.0342 2821.0901 4101.5308 2841.3369 4095.3264 2852.4285 4089.7473 2863.7769 4084.9878 2875.0901 4077.4702 2897.3474 4072.3167 2919.1382 4069.1604 2942.4219 4067.6343 2969.1585 4067.4165 2988.7327 4068.0769 3006.3003 4069.7576 3023.9614 4075.1792 3061.2359 4073.5266 3063.1646 4059.2131 3074.0908 4050.3818 3083.322 4043.2778 3093.5796 4038.1196 3104.5371 4035.7437 3113.8694 4035.7979 3126.9343 4037.0259 3138.6616 4039.7534 3150.5757 4044.2195 3163.6096 4055.688 3189.6463 4078.8159 3189.6463 4079.0037 3180.1897 4079.8997 3170.9197 4081.7903 3161.2764 4084.3328 3153.1575 4087.4546 3145.5984 4090.4038 3140.2791 4091.5793 3138.9841 4092.4297 3138.8792 4093.3813 3140.4346 4095.1584 3148.3357 4118.6821 3148.3357 4124.1929 3174.2171 4127.4097 3184.669 4129.4971 3189.6463 4147.8818 3189.6463 4154.2285 3168.1199 4157.8472 3148.8335 4181.5259 3147.8381 4184.4214 3137.386 4192.6187 3150.7078 4196.4326 3160.0943 4199.2246 3169.9475 4200.6299 3179.1941 4201.3345 3189.646 4222.0581 3189.646 4226.9673 3182.9442" stroke-width="1"  stroke-linecap="round" fill="none" layerid="10" net="" id="gge964" locked="0" /></svg>