<?xml version="1.0" encoding="UTF-8" standalone="no"?>
<svg
   xmlns:dc="http://purl.org/dc/elements/1.1/"
   xmlns:cc="http://creativecommons.org/ns#"
   xmlns:rdf="http://www.w3.org/1999/02/22-rdf-syntax-ns#"
   xmlns:svg="http://www.w3.org/2000/svg"
   xmlns="http://www.w3.org/2000/svg"
   id="svg8"
   version="1.1"
   viewBox="0 0 100 100"
   height="100mm"
   width="100mm">
  <defs
     id="defs2" />
  <metadata
     id="metadata5">
    <rdf:RDF>
      <cc:Work
         rdf:about="">
        <dc:format>image/svg+xml</dc:format>
        <dc:type
           rdf:resource="http://purl.org/dc/dcmitype/StillImage" />
        <dc:title></dc:title>
      </cc:Work>
    </rdf:RDF>
  </metadata>
  <g
     id="layer1">
    <path
       d="M 4.2653151,97.809406 C 1.2757243,93.258298 -0.02782158,88.58077 0.19143081,83.397562 0.31801516,80.363491 0.49365995,79.478553 1.438367,77.202999 c 1.701721,-4.04543 4.7096265,-7.458761 8.713187,-9.860734 0.38039,-0.25284 0.33803,-1.137778 -0.2544776,-5.436046 C 8.4440847,51.286967 8.2254541,45.471661 9.0121271,38.012901 10.663777,22.589702 15.862078,10.453413 24.453489,2.2361342 L 26.671692,0.21342072 27.5995,0.84551728 C 31.774259,3.8795901 37.426236,12.349708 40.328105,19.934887 c 2.987839,7.838019 4.125621,14.032586 4.407815,23.893318 0.20651,7.205923 -0.08594,11.630609 -1.261208,18.962953 -0.360343,2.275552 -0.65517,4.298267 -0.65517,4.424687 0,0.126418 0.643046,0.758518 1.428991,1.264197 3.732591,2.401975 6.591423,5.941724 7.984085,9.734314 0.67112,1.896297 0.74168,2.528395 0.589757,5.688884 -0.189096,4.045432 -1.231401,7.585181 -3.775973,13.147648 l -1.276139,2.781233 H 44.83302 41.895783 l -0.04769,-2.401975 c -0.02623,-1.264196 -0.344732,-3.41333 -0.707778,-4.803948 -0.678197,-2.654811 -2.2576,-6.068143 -2.702463,-5.688884 -0.137536,0 -0.349764,0.632098 -0.471593,1.264196 l -0.221508,1.137779 h -2.987508 -2.987509 l -0.386929,2.022715 c -0.77938,3.792589 -1.311529,5.941724 -1.829814,7.205921 l -0.530271,1.264196 h -2.334865 -2.334874 l -0.878037,-2.781233 c -0.48292,-1.517035 -1.052434,-3.919012 -1.265597,-5.183206 l -0.387564,-2.401975 -3.00715,-0.126418 -3.007151,-0.126418 -0.367768,-1.264196 -0.367764,-1.390619 -0.946402,1.390619 c -1.584353,2.275552 -2.97064,6.320983 -3.170479,9.228636 L 10.77609,99.832124 H 8.1441783 5.5122626 Z"
       style="fill:none;stroke:#000000;stroke-width:0.335751"
       id="path24" />
  </g>
</svg>
