999
"DXF R12 Output" (www.mydxf.blogspot.com)
 0 
SECTION
 2 
HEADER
 9 
$ACADVER
 1 
AC1009
 9 
$EXTMIN
 10 
 0 
 20 
 0 
 9 
$EXTMAX
 10 
 8.5 
 20 
 11 
 0 
ENDSEC
 0 
SECTION
 2 
ENTITIES
0
LINE
8
Layer 1
10
4.265320
20
97.809400
11
2.336705
21
94.366448
0
LINE
8
Layer 1
10
2.336705
20
94.366448
11
1.604716
21
92.616085
0
LINE
8
Layer 1
10
1.604716
20
92.616085
11
1.025056
21
90.840537
0
LINE
8
Layer 1
10
1.025056
20
90.840537
11
0.595810
21
89.035360
0
LINE
8
Layer 1
10
0.595810
20
89.035360
11
0.315066
21
87.196108
0
LINE
8
Layer 1
10
0.315066
20
87.196108
11
0.191431
21
83.397600
0
LINE
8
Layer 1
10
0.191431
20
83.397600
11
0.508103
21
80.015862
0
LINE
8
Layer 1
10
0.508103
20
80.015862
11
0.862787
21
78.704255
0
LINE
8
Layer 1
10
0.862787
20
78.704255
11
1.438370
21
77.203000
0
LINE
8
Layer 1
10
1.438370
20
77.203000
11
2.954718
21
74.293372
0
LINE
8
Layer 1
10
2.954718
20
74.293372
11
4.931775
21
71.656338
0
LINE
8
Layer 1
10
4.931775
20
71.656338
11
7.340427
21
69.327452
0
LINE
8
Layer 1
10
7.340427
20
69.327452
11
10.151560
21
67.342270
0
LINE
8
Layer 1
10
10.151560
20
67.342270
11
10.355596
21
66.990665
0
LINE
8
Layer 1
10
10.355596
20
66.990665
11
10.389158
21
66.141281
0
LINE
8
Layer 1
10
10.389158
20
66.141281
11
9.897082
21
61.906220
0
LINE
8
Layer 1
10
9.897082
20
61.906220
11
9.035196
21
54.741799
0
LINE
8
Layer 1
10
9.035196
20
54.741799
11
8.614725
21
48.774403
0
LINE
8
Layer 1
10
8.614725
20
48.774403
11
8.614195
21
43.399585
0
LINE
8
Layer 1
10
8.614195
20
43.399585
11
9.012130
21
38.012900
0
LINE
8
Layer 1
10
9.012130
20
38.012900
11
9.797455
21
32.384508
0
LINE
8
Layer 1
10
9.797455
20
32.384508
11
10.913477
21
27.071671
0
LINE
8
Layer 1
10
10.913477
20
27.071671
11
12.358397
21
22.081796
0
LINE
8
Layer 1
10
12.358397
20
22.081796
11
14.130416
21
17.422291
0
LINE
8
Layer 1
10
14.130416
20
17.422291
11
16.227735
21
13.100565
0
LINE
8
Layer 1
10
16.227735
20
13.100565
11
18.648555
21
9.124024
0
LINE
8
Layer 1
10
18.648555
20
9.124024
11
21.391076
21
5.500076
0
LINE
8
Layer 1
10
21.391076
20
5.500076
11
24.453500
21
2.236130
0
LINE
8
Layer 1
10
24.453500
20
2.236130
11
26.671700
21
0.213421
0
LINE
8
Layer 1
10
26.671700
20
0.213421
11
27.599500
21
0.845517
0
LINE
8
Layer 1
10
27.599500
20
0.845517
11
29.226033
21
2.225763
0
LINE
8
Layer 1
10
29.226033
20
2.225763
11
30.941508
21
4.041564
0
LINE
8
Layer 1
10
30.941508
20
4.041564
11
32.696388
21
6.218846
0
LINE
8
Layer 1
10
32.696388
20
6.218846
11
34.441137
21
8.683536
0
LINE
8
Layer 1
10
34.441137
20
8.683536
11
36.126220
21
11.361560
0
LINE
8
Layer 1
10
36.126220
20
11.361560
11
37.702098
21
14.178844
0
LINE
8
Layer 1
10
37.702098
20
14.178844
11
39.119237
21
17.061315
0
LINE
8
Layer 1
10
39.119237
20
17.061315
11
40.328100
21
19.934900
0
LINE
8
Layer 1
10
40.328100
20
19.934900
11
42.237632
21
25.588232
0
LINE
8
Layer 1
10
42.237632
20
25.588232
11
43.546625
21
31.123045
0
LINE
8
Layer 1
10
43.546625
20
31.123045
11
44.348310
21
37.037111
0
LINE
8
Layer 1
10
44.348310
20
37.037111
11
44.735920
21
43.828200
0
LINE
8
Layer 1
10
44.735920
20
43.828200
11
44.791250
21
48.800047
0
LINE
8
Layer 1
10
44.791250
20
48.800047
11
44.623483
21
53.262270
0
LINE
8
Layer 1
10
44.623483
20
53.262270
11
44.196632
21
57.748208
0
LINE
8
Layer 1
10
44.196632
20
57.748208
11
43.474710
21
62.791200
0
LINE
8
Layer 1
10
43.474710
20
62.791200
11
42.819540
21
67.215890
0
LINE
8
Layer 1
10
42.819540
20
67.215890
11
43.239306
21
67.705766
0
LINE
8
Layer 1
10
43.239306
20
67.705766
11
44.248530
21
68.480090
0
LINE
8
Layer 1
10
44.248530
20
68.480090
11
46.874886
21
70.481078
0
LINE
8
Layer 1
10
46.874886
20
70.481078
11
49.118045
21
72.825766
0
LINE
8
Layer 1
10
49.118045
20
72.825766
11
50.922469
21
75.431194
0
LINE
8
Layer 1
10
50.922469
20
75.431194
11
52.232620
21
78.214400
0
LINE
8
Layer 1
10
52.232620
20
78.214400
11
52.629262
21
79.458847
0
LINE
8
Layer 1
10
52.629262
20
79.458847
11
52.836140
21
80.584773
0
LINE
8
Layer 1
10
52.836140
20
80.584773
11
52.822377
21
83.903280
0
LINE
8
Layer 1
10
52.822377
20
83.903280
11
52.510437
21
86.882043
0
LINE
8
Layer 1
10
52.510437
20
86.882043
11
51.817695
21
89.908209
0
LINE
8
Layer 1
10
51.817695
20
89.908209
11
50.683301
21
93.218810
0
LINE
8
Layer 1
10
50.683301
20
93.218810
11
49.046407
21
97.050880
0
LINE
8
Layer 1
10
49.046407
20
97.050880
11
47.770267
21
99.832110
0
LINE
8
Layer 1
10
47.770267
20
99.832110
11
44.833000
21
99.832110
0
LINE
8
Layer 1
10
44.833000
20
99.832110
11
41.895800
21
99.832110
0
LINE
8
Layer 1
10
41.895800
20
99.832110
11
41.848110
21
97.430130
0
LINE
8
Layer 1
10
41.848110
20
97.430130
11
41.620527
21
95.075563
0
LINE
8
Layer 1
10
41.620527
20
95.075563
11
41.140332
21
92.626180
0
LINE
8
Layer 1
10
41.140332
20
92.626180
11
40.494517
21
90.563961
0
LINE
8
Layer 1
10
40.494517
20
90.563961
11
39.701601
21
88.643964
0
LINE
8
Layer 1
10
39.701601
20
88.643964
11
38.952435
21
87.292855
0
LINE
8
Layer 1
10
38.952435
20
87.292855
11
38.653900
21
86.963966
0
LINE
8
Layer 1
10
38.653900
20
86.963966
11
38.437872
21
86.937300
0
LINE
8
Layer 1
10
38.437872
20
86.937300
11
38.196185
21
87.332362
0
LINE
8
Layer 1
10
38.196185
20
87.332362
11
37.966279
21
88.201500
0
LINE
8
Layer 1
10
37.966279
20
88.201500
11
37.744771
21
89.339280
0
LINE
8
Layer 1
10
37.744771
20
89.339280
11
34.757261
21
89.339280
0
LINE
8
Layer 1
10
34.757261
20
89.339280
11
31.769751
21
89.339280
0
LINE
8
Layer 1
10
31.769751
20
89.339280
11
31.382822
21
91.361990
0
LINE
8
Layer 1
10
31.382822
20
91.361990
11
30.370005
21
95.913096
0
LINE
8
Layer 1
10
30.370005
20
95.913096
11
29.553012
21
98.567910
0
LINE
8
Layer 1
10
29.553012
20
98.567910
11
29.022741
21
99.832110
0
LINE
8
Layer 1
10
29.022741
20
99.832110
11
26.687871
21
99.832110
0
LINE
8
Layer 1
10
26.687871
20
99.832110
11
24.353001
21
99.832110
0
LINE
8
Layer 1
10
24.353001
20
99.832110
11
23.474964
21
97.050880
0
LINE
8
Layer 1
10
23.474964
20
97.050880
11
22.741008
21
94.364464
0
LINE
8
Layer 1
10
22.741008
20
94.364464
11
22.209364
21
91.867670
0
LINE
8
Layer 1
10
22.209364
20
91.867670
11
21.821800
21
89.465690
0
LINE
8
Layer 1
10
21.821800
20
89.465690
11
18.814650
21
89.339272
0
LINE
8
Layer 1
10
18.814650
20
89.339272
11
15.807500
21
89.212854
0
LINE
8
Layer 1
10
15.807500
20
89.212854
11
15.439732
21
87.948654
0
LINE
8
Layer 1
10
15.439732
20
87.948654
11
15.071968
21
86.558034
0
LINE
8
Layer 1
10
15.071968
20
86.558034
11
14.125566
21
87.948654
0
LINE
8
Layer 1
10
14.125566
20
87.948654
11
12.989883
21
89.941737
0
LINE
8
Layer 1
10
12.989883
20
89.941737
11
12.021135
21
92.325933
0
LINE
8
Layer 1
10
12.021135
20
92.325933
11
11.311982
21
94.828649
0
LINE
8
Layer 1
10
11.311982
20
94.828649
11
10.955086
21
97.177294
0
LINE
8
Layer 1
10
10.955086
20
97.177294
11
10.776100
21
99.832100
0
LINE
8
Layer 1
10
10.776100
20
99.832100
11
8.144180
21
99.832100
0
LINE
8
Layer 1
10
8.144180
20
99.832100
11
5.512260
21
99.832100
0
LINE
8
Layer 1
10
5.512260
20
99.832100
11
4.265320
21
97.809400
 0 
ENDSEC
 0 
EOF